<svg width="30" height="34" viewBox="0 0 30 34" fill="none" xmlns="http://www.w3.org/2000/svg">
    <rect x="0.5" y="0.5" width="72" height="33" rx="7.5" stroke="#DFDEDE"/>
    <path d="M20.4915 17.9503C20.4289 17.743 20.4054 17.1863 20.3876 16.9616L20.3271 16.3164C20.2839 15.8331 20.3248 15.1905 19.9941 14.7913C19.8362 14.9826 19.7579 15.2883 19.7304 15.5266L19.6346 16.8678C19.5798 17.5794 19.4737 18.2905 19.3421 18.9916L18.8513 21.1492C18.7374 21.5364 18.6262 21.9239 18.5174 22.3126C18.2429 23.2929 18.0936 24.0177 18.0129 25.0326L18.0001 25.3015C17.9937 25.7417 17.8822 25.7417 17.5202 25.7423L16.1864 25.7425C16.0636 25.7424 15.8591 25.7826 15.7538 25.7095L15.7422 25.7013C15.5952 25.6002 15.596 25.5265 15.5957 25.3652L15.5929 23.6871C15.5893 23.5003 15.5603 23.3049 15.542 23.1181L15.1311 19.7722L14.9732 17.7521L14.9625 17.2213C14.9565 17.0937 14.9314 16.9676 14.9265 16.8404L14.9174 16.1749C14.9155 16.0993 14.9018 16.0253 14.8991 15.9503L14.9284 13.8481L14.9564 13.5507C15.0128 12.7269 15.1152 12.2538 15.3369 11.4589L15.9258 9.29991L16.0557 8.71571C16.1025 8.50357 16.1026 8.32796 16.3453 8.26107L23.49 8.25774C23.663 8.25831 23.7756 8.26987 23.8596 8.44852L23.8671 8.46495C23.8832 8.49926 23.895 8.53514 23.9016 8.57263L24.9259 12.4998C24.9769 12.6605 24.987 12.8471 25.0048 13.0142L25.0451 13.465C25.051 13.5252 25.063 13.5851 25.0664 13.6456L25.0829 14.6669L25.0641 17.064C25.0611 17.1504 25.0394 17.2358 25.036 17.3223L25.0236 17.8448C25.0207 17.907 25.0071 17.968 25.003 18.03L24.8608 19.8857L24.4539 23.0297L24.4164 23.6252L24.3973 25.1956C24.3992 25.3893 24.4443 25.5678 24.2651 25.6963L24.2497 25.7073C24.16 25.772 24.0237 25.7419 23.9195 25.7421L22.6031 25.7422C21.9044 25.7416 22.0399 25.6517 21.9952 25.0792L21.8822 24.0362C21.8235 23.572 21.7044 23.1183 21.5806 22.6683L21.1427 21.1212C20.9317 20.3422 20.737 19.5501 20.6065 18.753L20.4915 17.9503ZM17.3429 8.77013L16.5584 8.77398C16.5321 8.83815 16.5236 8.90757 16.5088 8.97501L16.4243 9.37315C16.3895 9.51989 16.3355 9.66841 16.3095 9.81626L22.6245 9.81724L23.6959 9.81462L23.4877 8.94297C23.4758 8.89865 23.4665 8.80237 23.438 8.77294L17.3429 8.77013ZM16.1765 10.3207L15.6559 12.1654C15.7154 12.1231 15.7733 12.0809 15.8184 12.0226C16.1335 11.6455 16.3556 10.8283 16.4774 10.3295L16.1765 10.3207ZM16.996 10.3186C16.9774 10.4251 16.984 10.5332 16.9646 10.6404C16.8644 11.1948 16.587 12.1738 16.1328 12.4944L15.9484 12.6139C15.7509 12.7376 15.5684 12.6466 15.547 12.7667C15.5154 12.9435 15.51 13.1259 15.4923 13.3043L15.411 14.1903L15.4101 16.4343C15.4217 16.6866 15.4465 16.9392 15.4574 17.1905L15.4695 17.6244C15.4733 17.6953 15.4891 17.763 15.4931 17.8334L15.629 19.792C15.6347 19.8479 15.6475 19.9029 15.6522 19.9591L16.0586 23.4259C16.0787 23.6861 16.0988 23.937 16.0993 24.1986L16.1096 25.0235C16.1122 25.0861 16.1038 25.1492 16.1133 25.2109L17.5144 25.2108C17.5393 24.7668 17.5595 24.3133 17.6352 23.8742C17.786 23.0001 18.0428 22.16 18.2859 21.309L18.7107 19.6222C18.8537 18.9521 18.9803 18.2689 19.0589 17.5882L19.1341 16.7566C19.1582 16.4839 19.1731 16.2281 19.1909 15.9562L19.2115 15.7713C19.2466 15.34 19.3008 14.9551 19.5369 14.5809C20.0618 13.7492 20.5985 14.5965 20.707 15.1757L20.7528 15.4374C20.7786 15.5706 20.7731 15.7135 20.7865 15.8486L20.9035 17.2633L21.0563 18.4336L21.3721 20.0304L21.579 20.8111L21.6033 20.9102C21.6067 20.9273 21.6118 20.9409 21.6175 20.9572L21.684 21.2112C21.6874 21.2257 21.6917 21.2382 21.6965 21.2522L22.2021 23.0652C22.2531 23.2269 22.2781 23.4066 22.3066 23.5737L22.4661 24.8212C22.4745 24.9499 22.4913 25.0734 22.4933 25.2036C22.522 25.2156 22.5651 25.2099 22.5969 25.2099L22.8657 25.2101C23.2073 25.2102 23.5562 25.2268 23.8969 25.2093L23.8994 24.0775C23.9003 23.7147 23.923 23.384 23.9553 23.0255L24.2949 20.4636L24.5045 18.0301C24.5115 17.9135 24.5317 17.7994 24.5349 17.6822L24.5786 16.547L24.5978 15.1863L24.5454 13.5254C24.5281 13.26 24.5148 12.9925 24.4731 12.7295C24.4138 12.7045 24.3438 12.7011 24.2822 12.682C24.0231 12.6018 23.7666 12.458 23.5889 12.2489L23.5797 12.2382C23.4355 12.0635 23.3704 11.8085 23.2983 11.5984C23.2622 11.4933 23.2045 11.3973 23.1665 11.2939C23.0517 10.9809 23.016 10.6523 23.0176 10.3208L20.6472 10.3314C20.7394 10.5565 20.7793 10.7762 20.7917 11.0202L20.7918 12.2833C20.7903 12.3211 20.7929 12.3869 20.7741 12.4207L20.7619 12.4383C20.7189 12.5012 20.6787 12.5547 20.6 12.5745C20.2503 12.6625 20.3052 12.2269 20.3086 12.0441L20.311 11.522C20.3116 11.1285 20.3393 10.6588 20.0306 10.3674C20.0242 10.5385 20.0527 10.7158 20.0577 10.8892C20.0659 11.1758 20.0634 11.4652 20.0333 11.7503L19.9968 11.9923C19.9678 12.1996 19.8199 12.898 19.5067 12.8458C19.2066 12.7957 19.3086 12.5323 19.3714 12.3505L19.479 11.9889C19.5412 11.7395 19.5722 11.4532 19.5662 11.1957L19.5331 10.4178C19.5316 10.3902 19.5353 10.3521 19.5226 10.3281L16.996 10.3186ZM23.5439 10.3195C23.5473 10.6376 23.6554 10.9875 23.7507 11.2872C23.791 11.4142 23.8612 11.5231 23.9148 11.6438C23.9995 11.8344 24.043 12.0107 24.2477 12.1123L24.3386 12.1516L23.8812 10.4885C23.8675 10.4336 23.8604 10.3735 23.8335 10.3236L23.6429 10.3197C23.6147 10.3196 23.5703 10.326 23.5439 10.3195Z" fill="#292526"/>
</svg>
